<svg width="603.328" height="447" viewBox="0 0 603.328 447" fill="none" xmlns="http://www.w3.org/2000/svg"><path d="M78.719 0S6.129 170.342 1.316 237.103l178.575-7.986L.125 287.024c-.324 14.759-.016 4.939.867 19.636l173.028 5.904L3.77 352.259 42.719 416s128 31 256 31 256-31 256-31l44.883-63.729-170.29-39.709 173.036-5.901c.894-14.958 1.179-5.137.847-19.637l-179.757-57.907 178.55 7.991C596.672 164.085 518.719 0 518.719 0l-136 100s-19.899 10.461-84 10.461c-64.102 0-76-10.461-76-10.461z" fill-rule="evenodd"/><style>@media (prefers-color-scheme:light){path{fill:#000}} @media (prefers-color-scheme:dark){path{fill:#fff}}</style></svg>