<svg width="728" height="247" viewBox="0 0 728 247" fill="none" xmlns="http://www.w3.org/2000/svg"><path d="M22.544 60S1.754 108.778.376 127.895l51.137-2.287L.036 142.19c-.055 2.48-.047 2.537.02 3.01.047.333.125.873.23 2.614l49.547 1.69L1.079 160.87l11.156 18.253S48.888 188 85.54 188s73.305-8.877 73.305-8.877l12.855-18.249-48.765-11.371 49.55-1.69c.106-1.763.184-2.324.227-2.663.066-.484.07-.516.016-2.96l-51.473-16.582 51.125 2.288C170.86 106.987 148.536 60 148.536 60l-38.941 28.636s-5.699 2.995-24.055 2.995c-18.355 0-21.762-2.995-21.762-2.995zm294.777 119.828c9.188 5.448 19.723 8.172 31.614 8.172q13.955 0 24.812-3.877 10.856-3.936 18.789-11.273 7.993-7.336 13.121-17.119l-24.215-10.258q-4.177 8.112-11.511 13.122-7.277 5.01-18.551 5.009-13.898.001-24.039-8.767-10.137-8.827-11.391-24.216h92.153q-.001-22.01-7.696-37.876-7.692-15.924-20.933-24.335Q366.293 60 349.946 60q-18.069 0-32.148 8.172-14.015 8.17-22.129 22.605-8.05 14.435-8.051 33.223t7.934 33.223q7.993 14.434 21.769 22.605m128.614 0Q460.366 188 479.157 188q18.37 0 32.864-9.245 14.555-9.305 21.652-25.946l-25.41-9.782q-3.931 9.066-11.989 14.315-8.05 5.249-18.308 5.249-10.026 0-17.953-5.01-7.934-5.01-12.469-13.66-4.53-8.707-4.531-19.921c0-7.476 1.468-14.097 4.414-19.862q4.41-8.708 12.226-13.72 7.812-5.009 17.832-5.009 10.261 0 18.313 4.89 8.05 4.892 11.988 12.944l25.41-9.782q-7.096-16.104-21.769-24.753C501.646 62.902 490.728 60 478.681 60c-12.368 0-23.321 2.724-32.868 8.172q-14.251 8.17-22.484 22.605-8.173 14.435-8.172 33.223t8.172 33.223q8.232 14.434 22.606 22.605m106.527-1.61Q564.567 188 586.517 188q12.229 0 20.879-4.593 8.705-4.652 13.597-13.241l.715 14.911h25.172l.715-66.923c0-12.247-1.906-22.684-5.727-31.313q-5.723-12.945-17.715-19.862-11.989-6.98-29.82-6.979-13.898 0-23.801 4.175-9.9 4.116-16.402 11.094-6.441 6.98-10.317 15.03l23.918 8.77q4.654-7.815 11.211-11.453 6.62-3.698 15.391-3.698 11.988 0 18.07 7.098 6.145 7.097 7.637 20.518h-31.074c-15.313 0-27.238 3.34-35.789 10.02q-12.825 10.02-12.824 29.048-.001 17.834 12.109 27.616M215.439 62.923v122.154h27.378v-65.491q0-11.214 6.082-18.072 6.147-6.86 15.985-9.902 9.902-3.042 21.176-3.042V62.445q-12.468 0-24.215 5.607-11.694 5.607-19.028 17.118V62.923zm441.468 122.154h27.379v-65.491q0-11.214 6.082-18.072 6.147-6.86 15.985-9.902 9.902-3.042 21.175-3.042V62.445q-12.467 0-24.215 5.607-11.692 5.607-19.027 17.118V62.923h-27.379zm-278.39-75.512h-60.84q.956-8.767 5.844-14.613 4.892-5.905 11.871-8.708 6.98-2.804 13.777-2.804 7.1 0 13.422 2.923 6.38 2.921 10.797 8.708 4.412 5.727 5.129 14.494m227.441 51.475q-6.978 3.996-15.984 3.996-10.26 0-16.043-3.996-5.726-4.056-5.727-11.153 0-8.292 6.563-12.824 6.62-4.534 23.023-4.534h22.723v2.446q-.001 8.35-3.817 15.21-3.758 6.798-10.738 10.855" fill-rule="evenodd"/><style>@media (prefers-color-scheme:light){path{fill:#4C55E2}} @media (prefers-color-scheme:dark){path{fill:#fff}}</style></svg>