<?xml version="1.0" encoding="utf-8"?>
<svg width="580" height="430" viewBox="0 0 580 430" fill="none" xmlns="http://www.w3.org/2000/svg">
  <path d="M81.0001 0C81.0001 0 5.62836 163.821 1 228C1 228 173 220 173 220L0 276L1.00012 296L169 300L4.00018 339L41.0002 400C41.0002 400 166 430 290 430C414 430 539 400 539 400L576 339L411 300L579 296L580 276L407 220C407 220 579 228 579 228C573.892 157.801 499 0 499 0L365 104C365 104 338.5 109 291.5 109C244.5 109 215 104 215 104L81.0001 0Z" fill="#FFFFFF" fill-rule="evenodd" transform="scale(1 1)" />
</svg>