<?xml version="1.0" encoding="utf-8"?>
<svg width="603.328" height="447" viewBox="0 0 603.328 447" fill="none" xmlns="http://www.w3.org/2000/svg">
  <path d="M78.7188 0C78.7188 0 6.12891 170.342 1.31641 237.103C1.31641 237.103 179.891 229.117 179.891 229.117C179.891 229.117 0.125 287.024 0.125 287.024C-0.199219 301.783 0.109375 291.963 0.992188 306.66C0.992188 306.66 174.02 312.564 174.02 312.564L3.76953 352.259L42.7188 416C42.7188 416 170.719 447 298.719 447C426.719 447 554.719 416 554.719 416L599.602 352.271L429.312 312.562C429.312 312.562 602.348 306.661 602.348 306.661C603.242 291.703 603.527 301.524 603.195 287.024C603.195 287.024 423.438 229.117 423.438 229.117C423.438 229.117 601.988 237.108 601.988 237.108C596.672 164.085 518.719 0 518.719 0L382.719 100C382.719 100 362.82 110.461 298.719 110.461C234.617 110.461 222.719 100 222.719 100L78.7188 0Z" fill="#FFFFFF" fill-rule="evenodd" transform="scale(1 1)" />
</svg>