<?xml version="1.0" encoding="utf-8"?>
<svg width="54" height="58" viewBox="0 0 54 58" fill="none" xmlns="http://www.w3.org/2000/svg">
  <defs>
    <linearGradient id="gradient_1" gradientUnits="userSpaceOnUse" x1="25.478" y1="0" x2="25.478" y2="49.057">
      <stop offset="0" stop-color="#FF5E5E" />
      <stop offset="1" stop-color="#BC2323" />
    </linearGradient>
    <linearGradient id="gradient_2" gradientUnits="userSpaceOnUse" x1="27" y1="0" x2="27" y2="52">
      <stop offset="0" stop-color="#FFFFFF" />
      <stop offset="1" stop-color="#AAAAAA" />
    </linearGradient>
    <linearGradient id="gradient_3" gradientUnits="userSpaceOnUse" x1="3" y1="0" x2="3" y2="6">
      <stop offset="0" stop-color="#FFFFFF" />
      <stop offset="1" stop-color="#E3E3E3" />
    </linearGradient>
  </defs>
  <g>
    <path d="M27 0C29.1695 0 30.7702 0.976575 31.8022 2.92972L53.2992 43.8128C54.2686 45.6553 54.2323 47.4756 53.1904 49.2739C52.1373 51.0913 50.5724 52 48.4956 52L5.5044 52C3.42756 52 1.86262 51.0913 0.809585 49.2739C-0.232335 47.4756 -0.268557 45.6552 0.700919 43.8125L22.1963 2.93234C23.2293 0.977448 24.8305 0 27 0L27 0Z" fill="#3D4653" fill-rule="evenodd" transform="translate(0 3)" />
    <path d="M25.4783 0C26.9412 0 28.2847 0.82783 28.9813 2.14623C28.9813 2.14623 50.4769 43.0267 50.4769 43.0267C51.1436 44.294 51.1138 45.827 50.3972 47.0637C49.6807 48.3003 48.3771 49.0566 46.9739 49.0566C46.9739 49.0566 3.98272 49.0566 3.98272 49.0566C2.57954 49.0566 1.27587 48.3003 0.559349 47.0637C-0.15717 45.827 -0.187026 44.294 0.479736 43.0267C0.479736 43.0267 21.9753 2.14623 21.9753 2.14623C22.6719 0.82783 24.0154 0 25.4783 0C25.4783 0 25.4783 0 25.4783 0Z" fill="url(#gradient_1)" transform="matrix(1 0 0 1 1.522 1.472)" />
    <path d="M27 0C29.1695 0 30.7702 0.976575 31.8022 2.92972L53.2992 43.8128C54.2686 45.6553 54.2323 47.4756 53.1904 49.2739C52.1373 51.0913 50.5724 52 48.4956 52L5.5044 52C3.42756 52 1.86262 51.0913 0.809585 49.2739C-0.232335 47.4756 -0.268557 45.6552 0.700919 43.8125L22.1963 2.93234C23.2293 0.977447 24.8305 0 27 0L27 0ZM27 2.9434C26.0109 2.9434 25.2768 3.39677 24.7977 4.30351L3.30191 45.1843C2.83769 46.0667 2.85454 46.9375 3.35247 47.7969C3.83907 48.6367 4.55638 49.0566 5.5044 49.0566L48.4955 49.0566C49.4436 49.0566 50.1609 48.6367 50.6475 47.7969C51.1454 46.9375 51.1622 46.0666 50.6979 45.184L29.2037 4.30612C28.7236 3.39764 27.9891 2.9434 27 2.9434L27 2.9434Z" fill="url(#gradient_2)" fill-rule="evenodd" />
    <path d="M3 0C1.34062 0 0 1.34062 0 3C0 4.65937 1.34062 6 3 6C4.65938 6 6 4.65937 6 3C6 1.34062 4.65938 0 3 0C3 0 3 0 3 0Z" fill="url(#gradient_3)" fill-rule="evenodd" transform="matrix(1 0 0 1 24 36)" />
    <path d="M3.00953 0C1.26965 0 -0.116528 1.55 0.00775146 3.37C0.00775146 3.37 0.715178 13.77 0.715178 13.77C0.801216 15.02 1.805 16 2.99998 16C4.20451 16 5.19873 15.03 5.28477 13.77C5.28477 13.77 5.9922 3.37 5.9922 3.37C6.11648 1.55 4.73986 0 2.99041 0C2.99041 0 3.00953 0 3.00953 0Z" fill="url(#gradient_3)" fill-rule="evenodd" transform="translate(24 17)" />
  </g>
</svg>